<svg width="312" height="312" viewBox="0 0 312 312" fill="none" xmlns="http://www.w3.org/2000/svg">
<path fill-rule="evenodd" clip-rule="evenodd" d="M156 26C84.2029 26 26 84.2029 26 156C26 227.796 84.2029 286 156 286C227.796 286 286 227.796 286 156C286 84.2029 227.796 26 156 26ZM145.956 111.398L119.761 132.258C108.77 141.01 103.275 145.387 104.348 150.272L104.405 150.514C105.627 155.369 112.592 157.236 126.524 160.97C134.265 163.043 138.137 164.081 139.953 167.015L140.045 167.17C141.797 170.139 140.8 173.858 138.807 181.297L138.286 183.24C132.76 203.863 129.997 214.174 135.318 217.504C140.639 220.834 149.106 214.092 166.04 200.608L192.235 179.747C203.225 170.995 208.72 166.62 207.648 161.733L207.592 161.491C206.368 156.636 199.403 154.769 185.472 151.037C177.731 148.962 173.859 147.924 172.043 144.99L171.951 144.836C170.199 141.866 171.196 138.147 173.189 130.71L173.71 128.765C179.235 108.142 181.999 97.8311 176.676 94.501C171.356 91.1711 162.889 97.9133 145.956 111.398Z" fill="white" fill-opacity="0.12"/>
<path d="M156 26.5C227.52 26.5 285.5 84.4791 285.5 156C285.5 227.52 227.52 285.5 156 285.5C84.4791 285.5 26.5 227.52 26.5 156C26.5 84.4791 84.4791 26.5 156 26.5ZM176.941 94.0771C174.006 92.24 170.306 93.2638 165.412 96.2158C160.479 99.1917 154.098 104.275 145.645 111.007L119.449 131.867C113.968 136.232 109.81 139.542 107.165 142.374C104.522 145.204 103.268 147.686 103.859 150.38L103.861 150.387L103.918 150.629L103.92 150.636C104.591 153.303 106.834 155.068 110.503 156.623C114.178 158.18 119.445 159.59 126.395 161.453C130.278 162.493 133.144 163.262 135.271 164.133C137.253 164.944 138.531 165.821 139.366 167.031L139.527 167.278L139.615 167.426C140.413 168.778 140.607 170.324 140.335 172.495C140.061 174.684 139.324 177.434 138.324 181.167L137.804 183.11H137.803C135.044 193.406 132.96 201.179 132.238 206.793C131.522 212.361 132.107 216.084 135.053 217.928C137.989 219.765 141.688 218.741 146.582 215.789C151.515 212.813 157.897 207.731 166.352 200.999L192.546 180.139C198.028 175.774 202.185 172.464 204.83 169.632C207.473 166.802 208.727 164.32 208.136 161.626L208.135 161.62L208.079 161.379L208.076 161.369L208.009 161.122C207.263 158.592 205.047 156.888 201.492 155.382C197.817 153.825 192.551 152.416 185.602 150.554C181.718 149.513 178.852 148.744 176.726 147.873C174.743 147.061 173.465 146.184 172.63 144.974L172.469 144.728L172.381 144.581H172.382C171.584 143.229 171.389 141.683 171.661 139.511C171.935 137.322 172.672 134.572 173.672 130.839L174.192 128.895C176.951 118.599 179.035 110.825 179.757 105.212C180.473 99.6437 179.888 95.9206 176.941 94.0771Z" stroke="white" stroke-opacity="0.12"/>
</svg>
