<svg width="566" height="735" viewBox="0 0 566 735" fill="none" xmlns="http://www.w3.org/2000/svg">
<g filter="url(#filter0_f_41_34)">
<path d="M181.5 535C154.465 501.635 189.802 454.238 229.496 470.624L251 479.5V352.5L283 79L315 352.5V479.5L337.084 470.384C376.923 453.939 412.473 501.384 385.5 535L315 585.25L487 635.5V656H283H79V635.5L251 585.25L181.5 535Z" fill="#B54DB7"/>
</g>
<g clip-path="url(#clip0_41_34)" filter="url(#filter1_f_41_34)">
<path d="M383.666 496.115L386.986 495.021C389.256 494.273 390.39 493.9 391.11 494.487C391.829 495.074 391.69 496.262 391.413 498.636L391.225 500.243C391.151 500.876 391.114 501.192 391.186 501.488C391.218 501.62 391.266 501.749 391.329 501.87C391.469 502.14 391.705 502.353 392.177 502.781C393.24 503.745 393.771 504.227 393.8 504.749C393.812 504.974 393.765 505.199 393.662 505.4C393.423 505.865 392.741 506.09 391.378 506.539L389.793 507.061L391.44 512.075C391.55 512.409 391.368 512.769 391.034 512.879C390.701 512.989 390.341 512.807 390.232 512.473L388.585 507.459L386.943 508C385.571 508.452 384.885 508.678 384.415 508.442C384.217 508.343 384.049 508.193 383.927 508.008C383.636 507.57 383.779 506.862 384.065 505.444C384.191 504.821 384.254 504.51 384.207 504.21C384.187 504.079 384.151 503.95 384.1 503.827C383.985 503.547 383.77 503.313 383.34 502.846L382.229 501.638C380.623 499.893 379.82 499.02 380.053 498.124C380.286 497.229 381.413 496.858 383.666 496.115Z" fill="white"/>
</g>
<g filter="url(#filter2_f_41_34)">
<path d="M242.506 582.242L238.908 580.084C236.449 578.609 235.22 577.871 234.222 578.369C233.225 578.866 233.074 580.293 232.771 583.145L232.567 585.076C232.486 585.837 232.446 586.217 232.284 586.544C232.211 586.69 232.121 586.828 232.015 586.953C231.78 587.232 231.447 587.42 230.782 587.796C229.283 588.643 228.533 589.067 228.362 589.67C228.287 589.931 228.284 590.206 228.352 590.469C228.508 591.076 229.247 591.519 230.724 592.406L232.441 593.436L229.188 598.869C228.972 599.231 229.089 599.7 229.451 599.917C229.812 600.134 230.281 600.016 230.497 599.655L233.75 594.221L235.529 595.288C237.015 596.18 237.759 596.626 238.371 596.473C238.629 596.409 238.865 596.279 239.057 596.095C239.513 595.658 239.533 594.791 239.573 593.057C239.59 592.294 239.599 591.913 239.733 591.574C239.792 591.426 239.867 591.285 239.959 591.155C240.168 590.856 240.482 590.64 241.108 590.206L242.729 589.086C245.069 587.468 246.24 586.658 246.203 585.549C246.167 584.439 244.947 583.706 242.506 582.242Z" fill="white"/>
</g>
<g clip-path="url(#clip1_41_34)" filter="url(#filter3_f_41_34)">
<path d="M183.865 491.903L184.356 488.09C184.692 485.483 184.86 484.179 185.784 483.744C186.709 483.309 187.821 484.011 190.045 485.414L191.55 486.363C192.143 486.737 192.44 486.924 192.767 486.994C192.914 487.025 193.064 487.038 193.214 487.033C193.548 487.022 193.872 486.889 194.521 486.624C195.982 486.027 196.713 485.729 197.244 485.948C197.474 486.043 197.674 486.197 197.825 486.395C198.173 486.852 198.072 487.635 197.87 489.202L197.636 491.022L203.393 491.769C203.776 491.819 204.047 492.17 203.997 492.553C203.948 492.936 203.597 493.206 203.214 493.157L197.457 492.41L197.214 494.295C197.011 495.872 196.909 496.66 196.452 497.014C196.259 497.163 196.031 497.259 195.79 497.293C195.217 497.372 194.582 496.894 193.312 495.937C192.753 495.517 192.474 495.306 192.154 495.21C192.014 495.169 191.87 495.143 191.724 495.135C191.39 495.116 191.056 495.218 190.389 495.423L188.662 495.952C186.168 496.717 184.921 497.099 184.143 496.442C183.365 495.786 183.532 494.492 183.865 491.903Z" fill="white"/>
</g>
<defs>
<filter id="filter0_f_41_34" x="0.900002" y="0.900002" width="564.2" height="733.2" filterUnits="userSpaceOnUse" color-interpolation-filters="sRGB">
<feFlood flood-opacity="0" result="BackgroundImageFix"/>
<feBlend mode="normal" in="SourceGraphic" in2="BackgroundImageFix" result="shape"/>
<feGaussianBlur stdDeviation="39.05" result="effect1_foregroundBlur_41_34"/>
</filter>
<filter id="filter1_f_41_34" x="370" y="484.5" width="34.8679" height="34.8679" filterUnits="userSpaceOnUse" color-interpolation-filters="sRGB">
<feFlood flood-opacity="0" result="BackgroundImageFix"/>
<feBlend mode="normal" in="SourceGraphic" in2="BackgroundImageFix" result="shape"/>
<feGaussianBlur stdDeviation="2" result="effect1_foregroundBlur_41_34"/>
</filter>
<filter id="filter2_f_41_34" x="218" y="569.5" width="37.1145" height="37.1144" filterUnits="userSpaceOnUse" color-interpolation-filters="sRGB">
<feFlood flood-opacity="0" result="BackgroundImageFix"/>
<feBlend mode="normal" in="SourceGraphic" in2="BackgroundImageFix" result="shape"/>
<feGaussianBlur stdDeviation="2" result="effect1_foregroundBlur_41_34"/>
</filter>
<filter id="filter3_f_41_34" x="172" y="471.5" width="38.856" height="38.856" filterUnits="userSpaceOnUse" color-interpolation-filters="sRGB">
<feFlood flood-opacity="0" result="BackgroundImageFix"/>
<feBlend mode="normal" in="SourceGraphic" in2="BackgroundImageFix" result="shape"/>
<feGaussianBlur stdDeviation="2" result="effect1_foregroundBlur_41_34"/>
</filter>
<clipPath id="clip0_41_34">
<rect width="20" height="20" fill="white" transform="matrix(-0.892653 -0.450745 -0.450745 0.892653 400.868 497.515)"/>
</clipPath>
<clipPath id="clip1_41_34">
<rect width="22" height="22" fill="white" transform="matrix(-0.791933 0.610608 0.610608 0.791933 193.423 475.5)"/>
</clipPath>
</defs>
</svg>
