<svg width="472" height="472" viewBox="0 0 472 472" fill="none" xmlns="http://www.w3.org/2000/svg">
<g opacity="0.5">
<mask id="path-1-inside-1_41_35" fill="white">
<path d="M0 0H118V472H0V0Z"/>
</mask>
<path d="M0 0H118V472H0V0Z" fill="url(#paint0_linear_41_35)"/>
<path d="M118 0H117V472H118H119V0H118Z" fill="url(#paint1_linear_41_35)" fill-opacity="0.48" mask="url(#path-1-inside-1_41_35)"/>
</g>
<mask id="path-3-inside-2_41_35" fill="white">
<path d="M118 0H236V472H118V0Z"/>
</mask>
<path d="M118 0H236V472H118V0Z" fill="url(#paint2_linear_41_35)"/>
<path d="M236 0H235V472H236H237V0H236Z" fill="url(#paint3_linear_41_35)" fill-opacity="0.48" mask="url(#path-3-inside-2_41_35)"/>
<g opacity="0.3">
<mask id="path-5-inside-3_41_35" fill="white">
<path d="M236 0H354V472H236V0Z"/>
</mask>
<path d="M236 0H354V472H236V0Z" fill="url(#paint4_linear_41_35)"/>
<path d="M354 0H353V472H354H355V0H354Z" fill="url(#paint5_linear_41_35)" fill-opacity="0.48" mask="url(#path-5-inside-3_41_35)"/>
</g>
<g opacity="0.7">
<mask id="path-7-inside-4_41_35" fill="white">
<path d="M354 0H472V472H354V0Z"/>
</mask>
<path d="M354 0H472V472H354V0Z" fill="url(#paint6_linear_41_35)"/>
<path d="M472 0H471V472H472H473V0H472Z" fill="url(#paint7_linear_41_35)" fill-opacity="0.48" mask="url(#path-7-inside-4_41_35)"/>
</g>
<defs>
<linearGradient id="paint0_linear_41_35" x1="59" y1="0" x2="59" y2="472" gradientUnits="userSpaceOnUse">
<stop stop-color="#0C0C0C"/>
<stop offset="1"/>
</linearGradient>
<linearGradient id="paint1_linear_41_35" x1="59" y1="0" x2="59" y2="472" gradientUnits="userSpaceOnUse">
<stop stop-color="white" stop-opacity="0.24"/>
<stop offset="1" stop-color="white" stop-opacity="0"/>
</linearGradient>
<linearGradient id="paint2_linear_41_35" x1="177" y1="0" x2="177" y2="472" gradientUnits="userSpaceOnUse">
<stop stop-color="#0C0C0C"/>
<stop offset="1"/>
</linearGradient>
<linearGradient id="paint3_linear_41_35" x1="177" y1="0" x2="177" y2="472" gradientUnits="userSpaceOnUse">
<stop stop-color="white" stop-opacity="0.24"/>
<stop offset="1" stop-color="white" stop-opacity="0"/>
</linearGradient>
<linearGradient id="paint4_linear_41_35" x1="295" y1="0" x2="295" y2="472" gradientUnits="userSpaceOnUse">
<stop stop-color="#0C0C0C"/>
<stop offset="1"/>
</linearGradient>
<linearGradient id="paint5_linear_41_35" x1="295" y1="0" x2="295" y2="472" gradientUnits="userSpaceOnUse">
<stop stop-color="white" stop-opacity="0.24"/>
<stop offset="1" stop-color="white" stop-opacity="0"/>
</linearGradient>
<linearGradient id="paint6_linear_41_35" x1="413" y1="0" x2="413" y2="472" gradientUnits="userSpaceOnUse">
<stop stop-color="#0C0C0C"/>
<stop offset="1"/>
</linearGradient>
<linearGradient id="paint7_linear_41_35" x1="413" y1="0" x2="413" y2="472" gradientUnits="userSpaceOnUse">
<stop stop-color="white" stop-opacity="0.24"/>
<stop offset="1" stop-color="white" stop-opacity="0"/>
</linearGradient>
</defs>
</svg>
