<svg width="42" height="42" viewBox="0 0 42 42" fill="none" xmlns="http://www.w3.org/2000/svg">
<g filter="url(#filter0_i_1_21)">
<rect width="42" height="42" rx="12" fill="url(#paint0_linear_1_21)"/>
<rect x="0.5" y="0.5" width="41" height="41" rx="11.5" stroke="url(#paint1_linear_1_21)"/>
<g filter="url(#filter1_d_1_21)">
<path d="M6 20.7409L11.2777 15.3714L16.5573 10H28.7832L28.9036 10.1547L25.2795 13.8381L18.819 13.8456L12.2658 20.5146L18.0867 26.4367L21.9519 22.5043L28.0138 22.5024L31.4803 18.9605L33.7327 18.9586C34.9711 18.9586 35.9925 18.9642 36 18.9718C36.0073 18.9793 35.1898 19.8243 32.3517 22.7118H28.162L18.0496 33L6 20.7409Z" fill="url(#paint2_linear_1_21)"/>
</g>
</g>
<defs>
<filter id="filter0_i_1_21" x="0" y="0" width="42" height="44" filterUnits="userSpaceOnUse" color-interpolation-filters="sRGB">
<feFlood flood-opacity="0" result="BackgroundImageFix"/>
<feBlend mode="normal" in="SourceGraphic" in2="BackgroundImageFix" result="shape"/>
<feColorMatrix in="SourceAlpha" type="matrix" values="0 0 0 0 0 0 0 0 0 0 0 0 0 0 0 0 0 0 127 0" result="hardAlpha"/>
<feOffset dy="2"/>
<feGaussianBlur stdDeviation="4"/>
<feComposite in2="hardAlpha" operator="arithmetic" k2="-1" k3="1"/>
<feColorMatrix type="matrix" values="0 0 0 0 1 0 0 0 0 1 0 0 0 0 1 0 0 0 0.24 0"/>
<feBlend mode="normal" in2="shape" result="effect1_innerShadow_1_21"/>
</filter>
<filter id="filter1_d_1_21" x="2" y="8" width="38" height="31" filterUnits="userSpaceOnUse" color-interpolation-filters="sRGB">
<feFlood flood-opacity="0" result="BackgroundImageFix"/>
<feColorMatrix in="SourceAlpha" type="matrix" values="0 0 0 0 0 0 0 0 0 0 0 0 0 0 0 0 0 0 127 0" result="hardAlpha"/>
<feOffset dy="2"/>
<feGaussianBlur stdDeviation="2"/>
<feComposite in2="hardAlpha" operator="out"/>
<feColorMatrix type="matrix" values="0 0 0 0 0 0 0 0 0 0 0 0 0 0 0 0 0 0 0.16 0"/>
<feBlend mode="normal" in2="BackgroundImageFix" result="effect1_dropShadow_1_21"/>
<feBlend mode="normal" in="SourceGraphic" in2="effect1_dropShadow_1_21" result="shape"/>
</filter>
<linearGradient id="paint0_linear_1_21" x1="21" y1="0" x2="21" y2="42" gradientUnits="userSpaceOnUse">
<stop stop-color="#B54DB7"/>
<stop offset="1" stop-color="#751888"/>
</linearGradient>
<linearGradient id="paint1_linear_1_21" x1="21" y1="0" x2="21" y2="42" gradientUnits="userSpaceOnUse">
<stop stop-color="white" stop-opacity="0.24"/>
<stop offset="1" stop-color="#999999" stop-opacity="0"/>
</linearGradient>
<linearGradient id="paint2_linear_1_21" x1="21" y1="10" x2="21" y2="33" gradientUnits="userSpaceOnUse">
<stop stop-color="white"/>
<stop offset="1" stop-color="#CFCAF5"/>
</linearGradient>
</defs>
</svg>
